{"title":"Drug War 2013 BRRip 480p x264  AAC - VYTO [P2PDL]","uid":8610928,"size":374510670,"categoryP":"video","categoryS":"movies","magnet":"?xt=urn:btih:781f624eff1e4d174eca80738ccea81337d9510e&amp;dn=Drug+War+2013+BRRip+480p+x264++AAC+-+VYTO+%5BP2PDL%5D&amp;tr=udp%3A%2F%2Ftracker.openbittorrent.com%3A80&amp;tr=udp%3A%2F%2Fopen.demonii.com%3A1337&amp;tr=udp%3A%2F%2Ftracker.coppersurfer.tk%3A6969&amp;tr=udp%3A%2F%2Fexodus.desync.com%3A6969","seeders":1,"leechers":0,"uploader":"ValidusVyto","files":-1,"time":1372131848,"description":"_______ Visit us at our Semi Public Bittorrent Community ________\n  &lt;a href=&quot;\nhttp://p2pdl.com&quot; rel=&quot;nofollow&quot; target=&quot;_NEW&quot;&gt;\nhttp://p2pdl.com&lt;/a&gt;  _____________________________ &lt;a href=&quot; http://p2pdl.com&quot; rel=&quot;nofollow&quot; target=&quot;_NEW&quot;&gt; http://p2pdl.com&lt;/a&gt;\n\n\nDrug War 2013 BRRip 480p x264  AAC - VYTO\n\n\nOriginal Title: Du Zhan\nGenre: Crime\nPlot: A drug cartel boss who is arrested in a raid is coerced into betraying his\nformer accomplices as part of an undercover operation.    \nDirector: Johnnie To\nStars: Louis Koo, Honglei Sun, Yi Huang.\nRated: N/a\n\nInfo: &lt;a href=&quot;\nhttp://www.imdb.com/title/tt2165735/&quot; rel=&quot;nofollow&quot; target=&quot;_NEW&quot;&gt;\nhttp://www.imdb.com/title/tt2165735/&lt;/a&gt;\n\nTrailer:\n\n\nFormat                         : MPEG-4\nFile size                      : 352 MiB\nDuration                       : 1h 46mn\nOverall bit rate               : 462 Kbps\nSource                         : 720p.BluRay.x264.DualAudio-HDWinG\n\nVideo\nFormat                         : AVC\nBit rate                       : 419 Kbps\nWidth                          : 720 pixels\nHeight                         : 304 pixels\nDisplay aspect ratio           : 2.35:1\nFrame rate mode                : Constant\nFrame rate                     : 24.000 fps\nStream size                    : 319 MiB (91%)\nWriting library                : x264 core 130 r2273\nAudio\nFormat                         : AAC\nBit rate mode                  : Variable\nBit rate                       : 39.9 Kbps\nChannel(s)                     : 2 channels\nChannel positions              : Front: L R\nSampling rate                  : 48.0 KHz\nStream size                    : 30.4 MiB (9%)\nLanguage                       : Chinese(Mandarin)\n\nSubtitle                       : Yes(English)\n\n &lt;a href=&quot;\nhttp://ultraimg.com/images/Fsbnz.png&quot; rel=&quot;nofollow&quot; target=&quot;_NEW&quot;&gt;\nhttp://ultraimg.com/images/Fsbnz.png&lt;/a&gt; &lt;a href=&quot;\nhttp://ultraimg.com/images/B8iEt.png&quot; rel=&quot;nofollow&quot; target=&quot;_NEW&quot;&gt;\nhttp://ultraimg.com/images/B8iEt.png&lt;/a&gt; &lt;a href=&quot;\nhttp://ultraimg.com/images/P79Gs.png&quot; rel=&quot;nofollow&quot; target=&quot;_NEW&quot;&gt;\nhttp://ultraimg.com/images/P79Gs.png&lt;/a&gt; &lt;a href=&quot;\nhttp://ultraimg.com/images/REH5h.png&quot; rel=&quot;nofollow&quot; target=&quot;_NEW&quot;&gt;\nhttp://ultraimg.com/images/REH5h.png&lt;/a&gt; &lt;a href=&quot;\nhttp://ultraimg.com/images/hGVja.png&quot; rel=&quot;nofollow&quot; target=&quot;_NEW&quot;&gt;\nhttp://ultraimg.com/images/hGVja.png&lt;/a&gt; &lt;a href=&quot;\nhttp://ultraimg.com/images/S01ju.png&quot; rel=&quot;nofollow&quot; target=&quot;_NEW&quot;&gt;\nhttp://ultraimg.com/images/S01ju.png&lt;/a&gt;\n\n\n----------------------------------------------------------------------------------------------------\n\n\nEncoded using revolutionary 10bit encoding, which enables us to provide you more crispier \nand sharper images at small sizes, just make sure you follow our instructions without a fault.\nRecommend to you to use latest version of VLC player. Install K-Lite Codec Pack or shark007 codecs\nin case of any kind of problem in playback (For non-VLC Media Player users). Alternatively, install\nCore AVC codecs, the fastest decoder that there is coupled with Community Center Codec Pack and play\non Windows Media Player Classic. Check sample to be sure.\nEnjoy!\n\nEncoder Notes:Looking For Early Access To Anything You Can Provide DVDScr, R5, DVDR, BluRay, Direct\nAudio, Music Releases and Seedboxes. We require dedicated servers, so as to do more \nand fast releases of movies.\nIf You Got anything to offer please contact us at &quot;&lt;a class=&quot;__cf_email__&quot; href=&quot;/cdn-cgi/l/email-protection&quot; data-cfemail=&quot;5a3935342e3b392e1a2a682a3e3674393537&quot;&gt;[email&amp;#160;protected]&lt;/a&gt;&lt;script cf-hash='f9e31' type=&quot;text/javascript&quot;&gt;\n/* &lt;![CDATA[ */!function(){try{var t=&quot;currentScript&quot;in document?document.currentScript:function(){for(var t=document.getElementsByTagName(&quot;script&quot;),e=t.length;e--;)if(t[e].getAttribute(&quot;cf-hash&quot;))return t[e]}();if(t&amp;&amp;t.previousSibling){var e,r,n,i,c=t.previousSibling,a=c.getAttribute(&quot;data-cfemail&quot;);if(a){for(e=&quot;&quot;,r=parseInt(a.substr(0,2),16),n=2;a.length-n;n+=2)i=parseInt(a.substr(n,2),16)^r,e+=String.fromCharCode(i);e=document.createTextNode(e),c.parentNode.replaceChild(e,c)}}}catch(u){}}();/* ]]&gt; */&lt;/script&gt;&quot;.\n\nFace book Fan Page:   &lt;a href=&quot;\nhttp://fbl.me/BC&quot; rel=&quot;nofollow&quot; target=&quot;_NEW&quot;&gt;\nhttp://fbl.me/BC&lt;/a&gt;","torrent":{"xt":"urn:btih:781f624eff1e4d174eca80738ccea81337d9510e","amp;dn":"Drug+War+2013+BRRip+480p+x264++AAC+-+VYTO+%5BP2PDL%5D","amp;tr":["udp%3A%2F%2Ftracker.openbittorrent.com%3A80","udp%3A%2F%2Fopen.demonii.com%3A1337","udp%3A%2F%2Ftracker.coppersurfer.tk%3A6969","udp%3A%2F%2Fexodus.desync.com%3A6969"],"infoHash":"781f624eff1e4d174eca80738ccea81337d9510e","infoHashBuffer":{"type":"Buffer","data":[120,31,98,78,255,30,77,23,78,202,128,115,140,206,168,19,55,217,81,14]},"announce":[],"urlList":[]}}